# xmcd
#
# Track frame offsets:
#	150
#	21074
#	45230
#	63063
#	80339
#	100399
#	119822
#	141586
#	156813
#	171684
#	190855
#	209786
#	221335
#	239609
#	252310
#
# Disc length: 3583 seconds
#
# Revision: 1
# Processed by: cddbd v1.5.2PL0 Copyright (c) Steve Scherf et al.
# Submitted via: audiograbber 1.83.01
#
DISCID=e10dfd0f
DTITLE=Алексей Лысиков и Ксения Федулова - Пятое время года
DYEAR=2005
DGENRE=Blues
TTITLE0=Это было ребята
TTITLE1=Пятое время года
TTITLE2=Движение
TTITLE3=Когда погаснет свеча
TTITLE4=Придорожный камень
TTITLE5=Оглянись
TTITLE6=Натыкаться на стены
TTITLE7=Жили-были-плыли
TTITLE8=Старый хиппи
TTITLE9=Ночь перемены имён
TTITLE10=Школа, тренировка, дискотека
TTITLE11=Вечер в середине лета
TTITLE12=О, е, о, ё, о, ё-моё
TTITLE13=Семь патронов
TTITLE14=Пой, да играй
EXTD=
EXTT0=
EXTT1=
EXTT2=
EXTT3=
EXTT4=
EXTT5=
EXTT6=
EXTT7=
EXTT8=
EXTT9=
EXTT10=
EXTT11=
EXTT12=
EXTT13=
EXTT14=
PLAYORDER=
